<?xml version="1.0" standalone="no"?>
<!DOCTYPE svg PUBLIC "-//W3C//DTD SVG 20010904//EN"
 "http://www.w3.org/TR/2001/REC-SVG-20010904/DTD/svg10.dtd">
<svg version="1.0" xmlns="http://www.w3.org/2000/svg"
 width="886.000000pt" height="886.000000pt" viewBox="0 0 886.000000 886.000000"
 preserveAspectRatio="xMidYMid meet">
<metadata>
Created by potrace 1.14, written by Peter Selinger 2001-2017
</metadata>
<g transform="translate(0.000000,886.000000) scale(0.100000,-0.100000)"
fill="#000000" stroke="none">
<path d="M4416 8758 c3 -4 -2 -8 -10 -8 -9 0 -16 -5 -16 -11 0 -6 -6 -9 -12
-7 -12 4 -20 0 -51 -28 -7 -6 -18 -9 -26 -6 -8 3 -11 0 -7 -7 5 -7 -1 -11 -13
-11 -12 0 -21 -4 -21 -9 0 -5 -13 -14 -30 -20 -16 -5 -30 -14 -30 -19 0 -6
-16 -13 -35 -16 -20 -4 -33 -11 -30 -17 4 -5 -3 -9 -14 -9 -12 0 -21 -4 -21
-10 0 -5 -3 -9 -7 -9 -19 3 -34 -2 -29 -9 2 -4 -5 -9 -16 -9 -12 -1 -24 -7
-28 -14 -4 -6 -12 -9 -18 -5 -5 3 -13 -1 -16 -10 -4 -9 -9 -14 -13 -11 -3 4
-12 -1 -20 -11 -9 -10 -12 -11 -7 -2 5 10 0 9 -14 -4 -12 -11 -22 -16 -22 -12
0 3 -15 -1 -32 -11 -18 -9 -36 -16 -40 -15 -5 1 -8 -2 -8 -7 0 -9 -58 -35 -72
-32 -5 0 -8 -3 -8 -7 0 -5 -6 -9 -12 -9 -7 0 -33 -9 -58 -21 -25 -11 -52 -22
-60 -24 -8 -2 -21 -10 -28 -18 -8 -8 -11 -9 -7 -3 4 9 1 11 -9 7 -9 -3 -16
-10 -16 -15 0 -4 -7 -6 -15 -3 -8 4 -15 1 -15 -5 0 -6 -9 -11 -20 -11 -11 0
-20 -5 -20 -11 0 -5 -5 -7 -10 -4 -6 4 -17 1 -25 -5 -8 -7 -15 -10 -15 -6 0 4
-10 0 -23 -9 -13 -8 -27 -12 -30 -9 -4 4 -13 1 -21 -5 -8 -7 -20 -10 -26 -6
-6 4 -9 1 -8 -7 2 -8 -4 -12 -16 -10 -10 2 -15 -1 -11 -7 3 -7 0 -8 -9 -5 -9
3 -16 1 -16 -6 0 -6 -4 -9 -9 -6 -5 3 -24 0 -42 -8 -19 -7 -42 -12 -51 -11
-10 2 -16 -2 -15 -8 1 -7 -6 -11 -15 -9 -10 2 -18 -2 -18 -7 0 -6 -7 -8 -15
-5 -8 4 -15 1 -15 -5 0 -6 -13 -11 -28 -11 -15 0 -33 -5 -40 -12 -7 -7 -12 -8
-12 -4 0 5 -7 3 -15 -4 -8 -7 -15 -10 -15 -7 0 4 -18 0 -39 -8 -22 -7 -42 -11
-45 -8 -3 4 -6 2 -6 -4 0 -6 -15 -14 -32 -17 -67 -13 -73 -14 -81 -15 -5 -1
-6 -4 -4 -9 3 -4 -7 -8 -21 -9 -38 -2 -86 -13 -92 -21 -3 -4 -21 -9 -40 -10
-19 -2 -37 -7 -40 -10 -3 -4 -12 -8 -20 -9 -8 -1 -26 -4 -40 -8 -14 -3 -32 -8
-40 -10 -8 -2 -15 -4 -15 -5 0 -1 -13 -4 -28 -6 -21 -4 -27 -2 -21 7 4 8 3 9
-5 5 -6 -4 -8 -12 -5 -18 5 -7 2 -9 -8 -5 -9 3 -19 3 -22 -1 -4 -3 -19 -8 -34
-10 -14 -2 -33 -9 -41 -15 -12 -10 -13 -9 -6 3 8 13 7 13 -8 1 -9 -7 -17 -10
-17 -6 0 4 -7 2 -15 -5 -12 -10 -15 -10 -15 0 0 10 -3 10 -15 0 -9 -7 -25 -14
-38 -15 -12 -2 -35 -6 -52 -10 -16 -3 -46 -9 -65 -12 -19 -3 -38 -10 -42 -17
-6 -8 -8 -7 -8 2 0 8 -5 10 -12 5 -7 -4 -22 -9 -33 -11 -34 -5 -60 -10 -60
-12 0 -1 -17 -3 -38 -4 -21 -2 -43 -8 -49 -14 -7 -7 -17 -8 -29 -2 -12 7 -20
6 -24 0 -4 -6 -11 -8 -16 -5 -5 4 -9 2 -9 -3 0 -6 -9 -8 -20 -5 -11 3 -27 0
-35 -7 -12 -10 -15 -10 -15 0 0 10 -3 10 -15 0 -8 -6 -19 -9 -25 -5 -5 3 -10
2 -10 -3 0 -5 -11 -7 -25 -4 -14 2 -25 0 -25 -5 0 -4 -16 -8 -35 -7 -19 1 -35
-1 -35 -5 0 -3 -17 -6 -38 -5 -20 0 -48 -4 -61 -8 -16 -6 -27 -5 -31 3 -5 7
-9 8 -11 1 -2 -6 -20 -11 -39 -13 -19 -2 -41 -8 -49 -13 -12 -9 -13 -8 -6 3 6
11 4 13 -11 6 -10 -4 -31 -8 -46 -9 -15 -1 -31 -5 -34 -9 -4 -3 -15 -2 -25 3
-12 7 -20 7 -24 0 -4 -6 -10 -8 -15 -5 -5 3 -20 1 -34 -5 -18 -6 -26 -6 -26 1
0 6 -5 7 -12 2 -13 -8 -37 -11 -113 -14 -37 -1 -42 -5 -51 -35 -6 -18 -7 -31
-2 -28 4 3 8 0 8 -5 0 -6 -4 -11 -8 -11 -5 0 -8 -20 -7 -45 0 -25 -2 -45 -6
-45 -3 0 -6 -8 -6 -17 0 -87 -4 -114 -15 -107 -10 6 -10 4 0 -8 8 -10 9 -18 3
-22 -6 -4 -9 -27 -7 -51 2 -25 0 -47 -3 -50 -3 -3 -6 -34 -6 -68 -1 -35 -4
-67 -7 -73 -3 -5 -4 -19 -3 -31 1 -13 -1 -23 -4 -23 -3 0 -6 -30 -6 -68 0 -37
-1 -71 -4 -76 -2 -5 -6 -50 -8 -99 -2 -52 -8 -96 -15 -105 -9 -11 -9 -14 -1
-9 15 9 14 -35 -2 -45 -6 -5 -5 -8 4 -8 11 0 11 -3 1 -15 -10 -12 -10 -15 1
-15 12 0 12 -2 0 -9 -9 -6 -10 -11 -2 -15 8 -5 8 -13 1 -26 -7 -13 -7 -21 0
-25 7 -4 8 -11 2 -18 -6 -7 -9 -40 -8 -75 0 -34 -3 -62 -8 -62 -5 0 -4 -6 3
-13 8 -10 7 -17 -1 -25 -9 -9 -9 -12 1 -12 7 0 9 -5 5 -12 -11 -17 -10 -77 1
-82 6 -3 6 -5 0 -5 -12 -1 -12 -451 -1 -470 4 -6 3 -11 -2 -11 -5 0 -6 -19 -3
-42 3 -24 6 -64 6 -90 -1 -27 4 -48 10 -48 5 0 4 -4 -4 -9 -9 -6 -10 -10 -2
-16 9 -5 9 -10 0 -21 -9 -11 -8 -14 2 -14 11 0 11 -2 -1 -10 -12 -8 -12 -10
-1 -10 11 0 11 -3 0 -17 -8 -9 -9 -14 -3 -10 7 4 12 -2 12 -18 0 -16 -5 -22
-12 -18 -7 5 -7 2 1 -8 6 -8 13 -42 16 -75 2 -33 7 -66 12 -74 6 -9 4 -11 -5
-5 -9 6 -10 2 -5 -16 5 -13 9 -40 9 -59 1 -19 5 -41 9 -47 5 -8 3 -13 -5 -13
-9 0 -9 -3 2 -10 11 -7 11 -10 2 -10 -8 0 -10 -5 -5 -12 4 -7 9 -24 10 -38 8
-98 15 -135 26 -149 9 -12 9 -13 0 -7 -9 5 -13 0 -13 -13 0 -12 5 -21 11 -21
8 0 8 -5 -1 -15 -7 -8 -8 -15 -3 -15 8 0 14 -32 16 -87 1 -13 4 -23 7 -23 3 0
5 -17 5 -37 -1 -21 2 -42 6 -48 3 -5 6 -17 6 -25 1 -34 16 -116 24 -132 7 -12
6 -18 -2 -18 -8 0 -9 -4 0 -13 6 -8 8 -17 4 -20 -3 -4 -1 -7 5 -7 7 0 12 -5
12 -11 0 -5 -6 -7 -12 -3 -10 6 -10 4 -2 -7 6 -8 12 -21 13 -29 2 -35 7 -56
16 -69 6 -10 4 -12 -6 -6 -11 7 -12 6 -2 -7 7 -8 10 -18 6 -21 -3 -4 -2 -7 4
-7 5 0 10 -6 10 -12 0 -7 4 -31 8 -53 4 -22 8 -48 8 -57 1 -10 4 -18 8 -18 4
0 7 -6 6 -12 -1 -40 4 -68 12 -64 5 4 8 -2 6 -11 -1 -10 3 -24 9 -32 9 -12 8
-13 -4 -6 -12 7 -13 6 -4 -6 7 -8 15 -33 19 -56 4 -24 11 -45 15 -48 5 -3 7
-14 5 -25 -2 -11 0 -20 4 -20 8 0 10 -8 13 -54 1 -14 6 -22 12 -19 5 4 7 -1 3
-10 -3 -10 -2 -17 3 -17 5 0 7 -7 4 -15 -4 -8 -2 -15 2 -15 5 0 10 -10 11 -23
5 -50 9 -63 20 -75 6 -7 10 -21 8 -32 -2 -13 0 -18 7 -14 6 4 9 1 6 -7 -2 -7
1 -25 8 -38 7 -14 11 -28 8 -33 -3 -4 0 -8 6 -8 6 0 8 -4 5 -10 -3 -5 -2 -10
2 -10 8 0 12 -15 15 -57 1 -7 5 -13 11 -13 5 0 7 -6 5 -12 -3 -7 1 -19 8 -26
7 -7 11 -21 9 -32 -2 -11 1 -20 7 -20 5 0 7 -7 4 -16 -3 -8 -2 -12 4 -9 6 3
10 -3 10 -14 0 -11 4 -22 10 -26 5 -3 7 -12 3 -20 -3 -8 0 -15 7 -15 6 0 8 -4
5 -10 -3 -5 -1 -10 6 -10 7 0 9 -3 6 -6 -4 -4 0 -19 7 -33 16 -29 29 -66 24
-66 -2 -1 5 -13 15 -28 9 -15 15 -27 11 -27 -4 0 -1 -7 6 -15 7 -8 9 -15 6
-15 -4 0 0 -7 8 -16 9 -8 14 -20 11 -25 -4 -5 -1 -9 4 -9 6 0 11 -9 11 -20 0
-11 6 -20 13 -20 8 0 7 -4 -3 -10 -13 -9 -13 -10 0 -10 9 0 16 -10 17 -22 1
-13 8 -27 15 -33 7 -5 15 -19 16 -30 2 -11 7 -22 11 -25 5 -3 11 -18 15 -35 4
-16 13 -33 19 -37 7 -4 13 -12 13 -18 1 -5 2 -15 3 -21 0 -5 6 -7 11 -4 6 4 9
3 8 -2 -1 -4 4 -24 11 -43 8 -19 13 -38 12 -42 0 -5 5 -7 12 -5 6 1 11 -4 10
-10 -2 -7 2 -13 8 -13 5 0 7 -5 4 -10 -3 -5 -1 -10 4 -10 6 0 11 -3 10 -7 -2
-16 14 -53 22 -53 5 0 9 -7 9 -15 0 -9 7 -18 15 -21 8 -4 13 -9 10 -14 -2 -4
7 -22 20 -40 13 -18 22 -36 20 -40 -2 -3 5 -13 16 -20 10 -8 19 -22 19 -31 0
-9 8 -20 17 -23 15 -6 15 -8 3 -16 -13 -8 -12 -10 3 -10 10 0 15 -5 12 -10 -3
-5 -1 -10 5 -10 6 0 14 -8 17 -17 4 -10 14 -24 22 -31 13 -11 13 -12 1 -6 -8
4 -5 -4 8 -18 12 -13 19 -28 15 -31 -3 -4 1 -7 11 -7 9 0 15 -4 11 -9 -3 -5 5
-17 17 -25 15 -11 18 -16 8 -16 -9 -1 -5 -6 9 -14 18 -10 20 -15 10 -19 -10
-4 -9 -6 4 -6 10 -1 15 -5 12 -11 -3 -5 -1 -10 4 -10 6 0 11 -6 11 -14 0 -8 8
-21 18 -28 11 -7 24 -23 31 -35 6 -12 22 -34 36 -49 13 -14 27 -35 30 -45 4
-11 13 -19 21 -19 8 0 12 -4 9 -10 -3 -5 -1 -10 5 -10 6 0 8 -4 5 -10 -3 -5 1
-10 9 -10 8 0 18 -5 22 -12 5 -7 3 -8 -7 -3 -16 10 21 -34 68 -80 18 -17 33
-35 33 -39 0 -3 12 -20 28 -35 86 -91 110 -120 105 -125 -4 -3 -1 -6 6 -6 16
0 42 -26 34 -34 -4 -3 -1 -6 6 -6 14 0 41 -24 41 -37 0 -11 81 -79 91 -76 5 2
5 -5 2 -13 -4 -12 -2 -15 8 -12 8 3 19 -5 25 -16 6 -12 16 -20 22 -19 6 2 9
-4 6 -12 -4 -9 0 -15 9 -15 9 0 22 -9 30 -20 8 -11 17 -17 20 -13 4 3 7 -1 7
-10 0 -9 6 -17 13 -17 6 -1 23 -14 37 -30 13 -17 30 -30 37 -30 7 0 13 -5 13
-11 0 -5 5 -7 12 -3 6 4 8 3 5 -3 -3 -5 3 -17 14 -26 10 -9 19 -15 19 -12 0 2
12 -7 28 -20 63 -57 73 -65 79 -65 3 0 14 -9 24 -21 10 -12 23 -18 30 -13 7 4
10 3 7 -2 -6 -11 28 -45 36 -36 3 3 6 0 6 -7 0 -7 4 -9 10 -6 5 3 10 -1 10
-10 0 -9 4 -14 8 -11 5 3 20 -6 35 -20 15 -14 32 -22 37 -19 6 4 9 1 8 -7 -2
-7 3 -12 10 -10 6 1 12 -2 12 -8 0 -5 7 -10 16 -10 8 0 12 -4 9 -10 -3 -5 1
-10 9 -10 9 0 16 -4 16 -10 0 -5 5 -10 12 -10 6 0 23 -10 36 -22 14 -13 22
-17 18 -10 -7 11 -4 11 12 1 12 -7 18 -17 15 -23 -4 -5 1 -7 10 -3 11 4 17 1
17 -9 0 -8 4 -13 9 -10 5 3 14 -1 21 -9 7 -8 16 -13 20 -10 4 3 10 -2 14 -10
3 -8 15 -15 26 -15 12 0 18 -4 15 -10 -3 -5 1 -10 10 -10 9 0 23 -7 32 -16 9
-8 22 -13 30 -10 8 3 12 2 9 -3 -3 -4 12 -17 34 -27 22 -10 40 -23 40 -29 0
-5 5 -3 10 5 8 13 10 12 10 -2 0 -10 3 -18 8 -19 27 -3 44 -9 58 -23 8 -9 22
-16 30 -16 9 0 22 -7 31 -15 8 -8 19 -13 24 -10 5 4 9 1 9 -4 0 -6 9 -11 20
-11 11 0 20 -3 20 -8 0 -6 68 -41 95 -48 29 -7 81 -30 86 -37 4 -5 18 -10 33
-10 14 -1 26 -7 26 -14 0 -6 9 -9 22 -5 16 4 19 2 13 -8 -6 -10 -4 -12 7 -7 9
3 25 -1 37 -9 11 -8 21 -12 21 -8 0 3 6 1 13 -5 8 -6 24 -13 38 -15 13 -3 26
-5 29 -6 3 -2 8 -2 13 -1 4 0 7 -3 7 -9 0 -5 10 -10 23 -10 12 0 33 -7 45 -16
14 -10 32 -14 48 -10 16 4 26 2 30 -7 3 -9 14 -12 31 -9 20 4 24 2 18 -9 -8
-12 -6 -12 8 0 10 8 20 11 23 8 4 -3 13 0 20 8 8 8 22 11 31 8 10 -4 14 -2 10
4 -4 6 9 13 33 17 22 3 40 12 40 19 0 8 4 7 10 -3 7 -11 10 -11 10 -2 0 7 5
10 10 7 6 -3 10 -1 10 4 0 6 3 10 8 9 4 -1 16 3 27 9 11 6 22 11 25 11 3 0 19
6 35 13 17 7 35 13 40 14 6 0 20 6 31 13 12 6 24 8 28 5 3 -3 6 -1 6 6 0 7 5
9 10 6 6 -3 10 -1 10 4 0 6 9 11 20 11 11 0 20 5 20 10 0 6 3 9 8 9 4 -1 10 0
15 1 4 1 10 3 15 5 51 14 62 18 62 26 0 5 6 9 14 9 19 0 76 33 76 43 0 5 5 5
10 2 6 -4 17 -1 25 5 8 7 15 9 15 4 0 -5 5 -1 10 8 6 9 24 19 40 23 17 4 30
11 30 16 0 6 5 7 10 4 6 -3 10 -1 10 5 0 7 7 10 15 6 10 -3 15 1 15 11 0 9 3
13 7 10 3 -4 15 1 26 10 15 13 18 14 13 3 -4 -8 2 -4 14 10 12 14 24 24 26 23
11 -7 24 -2 19 7 -3 5 0 7 8 4 8 -3 21 2 30 10 8 8 17 12 21 9 3 -4 6 -1 6 5
0 7 7 12 15 12 8 0 15 5 15 11 0 6 7 9 15 5 9 -3 15 0 15 9 0 8 6 14 13 13 6
-2 11 3 9 10 -1 8 2 11 7 8 13 -8 42 4 35 15 -3 5 4 9 15 9 12 0 21 5 21 10 0
6 7 10 15 10 8 0 15 8 15 18 0 13 2 14 9 3 5 -7 10 -9 12 -4 2 5 27 24 56 42
29 19 50 38 46 44 -3 6 -2 7 4 4 13 -8 65 27 56 38 -5 4 -3 5 4 1 7 -4 22 3
35 16 13 13 26 22 31 20 4 -1 7 6 8 15 0 10 3 13 5 6 4 -8 16 -2 34 17 16 17
32 30 35 30 8 0 31 19 78 65 22 22 37 33 33 25 -4 -8 1 -5 12 8 11 12 23 22
27 22 11 0 60 54 57 63 -1 4 1 6 5 5 14 -4 63 34 63 48 0 7 5 16 12 20 7 5 8
2 3 -7 -5 -8 16 10 45 38 29 29 57 53 62 53 5 0 7 4 4 8 -3 5 6 15 19 22 14 7
25 16 25 20 0 3 33 40 73 83 39 42 85 92 102 111 16 19 34 32 39 29 5 -4 6 -1
2 5 -4 6 4 22 16 34 13 13 22 27 20 32 -2 5 4 6 13 2 9 -3 13 -2 10 4 -3 5 8
23 25 40 16 17 30 35 30 41 0 6 5 7 10 4 6 -4 10 -3 9 2 -4 15 13 43 22 37 5
-3 9 4 9 15 0 11 9 25 20 31 11 6 19 16 17 23 -1 7 3 11 10 10 6 -2 15 6 18
17 4 11 12 20 18 20 9 0 8 3 -1 8 -9 6 -5 12 13 22 14 7 25 22 25 32 0 12 4
16 12 12 7 -5 9 0 6 14 -5 16 -2 19 11 15 9 -4 13 -3 9 2 -4 4 4 21 17 37 14
16 25 36 25 44 0 9 4 13 9 10 5 -3 12 6 15 19 4 16 11 23 18 19 7 -5 9 0 6 14
-4 12 -2 20 3 16 5 -3 9 0 9 6 0 6 7 18 16 27 8 9 13 22 10 30 -3 8 -2 11 3 8
12 -7 42 35 35 47 -3 4 2 8 11 8 9 0 14 4 11 9 -3 4 3 19 14 31 23 26 25 34 8
24 -11 -6 12 26 32 46 3 3 6 12 8 20 2 8 10 19 18 23 8 4 14 19 14 32 0 15 6
25 14 25 10 0 12 7 8 22 -3 13 -1 19 5 15 6 -4 14 5 18 20 3 16 10 30 14 33
15 11 91 181 86 191 -4 5 -1 8 6 7 7 -2 13 2 14 7 0 6 4 16 8 23 5 6 5 12 0
12 -4 0 -3 4 2 8 9 6 36 55 40 72 6 27 31 80 37 80 4 0 7 3 7 8 -1 4 0 10 1
15 1 4 4 12 5 17 1 6 4 12 5 15 1 3 3 8 4 13 1 4 7 17 14 30 7 12 10 27 7 32
-3 5 2 13 11 18 9 5 15 12 15 15 -2 20 13 66 20 62 4 -3 6 4 4 15 -2 11 1 20
7 20 6 0 8 3 5 7 -4 3 -2 11 3 18 5 6 11 20 14 31 2 10 7 28 10 39 4 11 6 24
6 29 -1 5 4 12 10 16 7 4 13 22 15 40 1 18 8 36 16 41 11 7 11 9 1 9 -10 0 -9
4 3 16 9 9 14 23 11 30 -3 7 -1 16 5 19 5 4 7 11 4 16 -4 5 -1 9 5 9 7 0 10 7
6 15 -3 8 -1 15 4 15 6 0 9 3 9 8 -5 27 2 52 13 46 7 -4 8 -3 4 4 -4 7 -4 18
1 25 4 6 8 21 8 32 0 11 4 26 9 33 4 7 5 16 2 19 -3 3 2 12 12 20 9 8 11 12 5
8 -7 -3 -13 -1 -13 4 0 6 4 11 9 11 5 0 12 20 15 45 4 24 11 47 17 50 5 4 9
11 9 16 0 6 -6 7 -12 3 -9 -6 -9 -3 1 9 7 9 11 24 7 32 -3 9 -2 13 4 10 6 -4
10 7 10 24 0 17 5 31 10 31 6 0 10 5 10 11 0 5 -6 7 -12 3 -9 -6 -9 -3 1 9 7
9 11 24 7 32 -3 9 -2 13 4 10 9 -5 14 22 13 63 -1 6 2 12 6 12 4 0 7 8 8 18 1
9 4 28 6 42 3 14 5 33 6 43 0 10 4 16 9 13 4 -2 7 11 6 30 -1 19 2 37 7 40 5
3 9 21 9 40 0 19 5 34 11 34 8 0 7 5 -2 16 -8 10 -9 18 -2 22 5 4 9 15 7 25
-1 9 1 17 5 17 4 0 6 12 6 28 -1 15 1 32 4 37 3 6 7 30 9 55 2 24 8 48 15 52
9 6 8 8 -3 8 -13 0 -13 1 0 10 13 9 13 10 0 10 -10 0 -11 3 -4 8 6 4 11 23 12
42 0 19 5 36 11 38 6 2 7 12 1 26 -5 13 -4 29 2 40 5 10 7 20 4 23 -3 4 0 13
7 21 10 13 9 14 -3 7 -12 -7 -13 -6 -3 6 7 8 10 27 7 42 -2 15 0 27 5 27 5 0
8 23 7 51 -1 28 2 53 7 56 4 2 4 9 1 15 -4 6 0 14 7 19 8 5 9 9 3 9 -6 0 -10
10 -8 23 1 12 3 22 4 22 8 0 6 43 -3 54 -9 11 -9 13 0 8 15 -9 21 28 12 66 -4
15 -4 25 0 22 5 -2 9 21 10 53 3 87 6 110 14 118 3 4 2 15 -4 25 -5 11 -6 19
-1 19 10 0 9 30 -1 47 -4 6 -3 14 3 18 5 3 10 13 10 21 0 10 -5 12 -12 8 -10
-6 -10 -5 -1 7 10 13 16 64 13 124 -1 11 -1 25 0 30 1 6 3 151 5 323 3 235 1
312 -8 312 -7 0 -6 4 3 10 11 7 12 12 3 21 -7 7 -9 19 -4 28 4 9 6 30 4 46 -2
17 -3 45 -3 64 0 19 -6 41 -13 50 -9 11 -9 13 0 8 15 -9 14 32 -1 52 -9 12 -8
13 4 6 13 -8 13 -7 1 8 -11 14 -11 17 0 17 11 0 11 2 -1 10 -12 8 -12 10 -1
10 11 0 11 3 0 17 -12 15 -12 16 1 8 12 -7 13 -6 4 6 -6 8 -12 32 -12 54 0 22
-3 74 -7 115 -4 41 -7 90 -7 107 0 22 -4 30 -12 26 -6 -4 -5 1 3 10 11 14 11
17 0 17 -12 0 -12 2 0 9 10 6 10 10 1 16 -9 6 -9 10 1 16 8 5 9 9 4 9 -6 0
-12 17 -13 38 -4 58 -11 102 -17 111 -3 5 1 12 7 14 10 4 10 6 1 6 -7 1 -10 7
-7 15 3 8 0 24 -6 36 -9 17 -9 21 0 15 9 -6 9 -3 1 13 -6 11 -13 46 -16 78 -3
32 -10 61 -16 65 -8 5 -8 8 2 11 21 7 -11 67 -36 67 -21 0 -120 9 -120 11 0 2
-43 9 -95 15 -25 3 -61 7 -80 10 -19 3 -50 5 -67 6 -18 1 -33 4 -33 8 0 3 -19
7 -43 8 -23 0 -55 4 -72 8 -16 3 -42 7 -57 8 -15 1 -28 5 -28 9 0 3 -9 4 -20
1 -11 -3 -27 0 -35 7 -12 10 -15 10 -15 -1 0 -11 -2 -11 -8 -2 -4 7 -27 14
-50 15 -23 2 -42 7 -42 11 0 5 -4 5 -10 2 -5 -3 -19 -1 -31 6 -15 8 -19 8 -15
0 4 -6 3 -11 -3 -11 -5 0 -13 5 -17 11 -3 6 -15 9 -25 6 -10 -3 -21 -1 -24 3
-3 5 -19 8 -35 8 -16 -1 -37 5 -47 13 -15 12 -16 12 -8 -1 8 -13 7 -13 -9 -1
-14 12 -19 12 -26 2 -5 -9 -9 -10 -11 -2 -2 6 -16 12 -31 13 -16 1 -28 5 -28
9 0 4 -8 6 -17 4 -10 -1 -22 0 -28 4 -5 3 -17 6 -25 6 -8 0 -21 4 -27 8 -7 5
-17 5 -23 2 -5 -3 -10 0 -10 7 0 10 -2 10 -9 -1 -6 -9 -11 -10 -15 -3 -4 6
-13 9 -21 5 -8 -3 -15 -1 -15 5 0 8 -60 22 -97 23 -5 1 -14 6 -22 12 -12 9
-13 9 -7 0 4 -7 2 -13 -3 -13 -6 0 -11 4 -11 9 0 5 -7 12 -16 15 -10 4 -13 2
-8 -7 6 -9 5 -9 -8 0 -8 7 -27 14 -42 15 -14 1 -26 6 -26 11 0 5 -7 6 -16 3
-9 -4 -23 -1 -30 5 -8 6 -23 9 -34 6 -11 -3 -20 -1 -20 4 0 5 -8 9 -18 9 -10
0 -22 3 -25 7 -6 6 -38 12 -74 15 -7 1 -13 6 -13 12 0 6 -5 4 -10 -4 -5 -8
-10 -10 -10 -4 0 13 -25 22 -80 31 -19 3 -41 10 -48 16 -7 5 -23 11 -35 11
-12 1 -28 5 -34 9 -7 5 -17 5 -23 2 -5 -3 -10 -1 -10 5 0 7 -7 10 -15 6 -8 -3
-15 -1 -15 4 0 6 -9 10 -20 10 -12 0 -34 7 -49 15 -16 8 -31 11 -35 8 -3 -4
-6 0 -6 8 0 11 -2 11 -10 -1 -5 -8 -10 -10 -10 -4 0 6 -19 17 -42 23 -24 7
-49 18 -57 25 -11 8 -13 8 -8 -1 5 -8 -2 -7 -20 2 -15 8 -34 15 -40 15 -7 0
-13 6 -13 13 0 8 -4 7 -10 -3 -8 -12 -10 -12 -10 -1 0 8 -3 12 -6 8 -4 -3 -19
0 -35 9 -16 8 -29 12 -29 8 0 -4 -7 -1 -15 6 -8 6 -18 9 -24 6 -5 -3 -11 -1
-13 6 -2 6 -15 13 -29 15 -13 2 -25 8 -27 13 -2 6 -14 10 -27 10 -12 0 -28 7
-35 15 -7 8 -15 13 -19 10 -12 -7 -82 21 -74 30 5 4 0 5 -9 2 -10 -3 -23 -1
-30 6 -7 7 -22 14 -33 15 -11 2 -24 8 -29 13 -6 5 -18 9 -28 9 -10 0 -18 5
-18 11 0 5 -4 7 -10 4 -5 -3 -10 -1 -10 5 0 6 -4 9 -9 5 -6 -3 -16 1 -23 8 -7
8 -21 12 -32 9 -13 -3 -17 -1 -12 6 5 8 0 12 -13 12 -11 0 -23 5 -26 10 -4 6
-11 8 -16 5 -5 -4 -9 -1 -9 5 0 7 -7 10 -15 6 -8 -3 -15 -1 -15 5 0 6 -4 8 -9
5 -5 -3 -11 0 -14 8 -3 8 -19 17 -36 21 -17 4 -31 11 -31 16 0 6 -5 7 -10 4
-6 -3 -13 1 -16 10 -6 13 -8 14 -15 3 -7 -10 -9 -11 -9 0 0 7 -4 10 -10 7 -5
-3 -10 -2 -10 2 0 5 -9 14 -21 21 -17 11 -20 11 -14 0 3 -7 -3 -2 -14 11 -12
13 -21 20 -21 17 0 -4 -10 -1 -22 6 -13 7 -26 11 -30 10 -5 -1 -8 3 -8 10 0 6
-3 9 -6 5 -4 -3 -13 1 -21 9 -8 8 -19 11 -25 8 -6 -4 -8 -2 -4 4 6 10 -30 28
-47 24 -5 -1 -6 2 -2 7 3 6 -6 13 -20 17 -13 3 -23 10 -20 14 3 5 -3 8 -14 7
-11 0 -17 -5 -15 -9z"/>
</g>
</svg>
