<?xml version="1.0" standalone="no"?>
<!DOCTYPE svg PUBLIC "-//W3C//DTD SVG 20010904//EN"
 "http://www.w3.org/TR/2001/REC-SVG-20010904/DTD/svg10.dtd">
<svg version="1.0" xmlns="http://www.w3.org/2000/svg"
 width="1102.000000pt" height="1102.000000pt" viewBox="0 0 1102.000000 1102.000000"
 preserveAspectRatio="xMidYMid meet">
<metadata>
Created by potrace 1.14, written by Peter Selinger 2001-2017
</metadata>
<g transform="translate(0.000000,1102.000000) scale(0.100000,-0.100000)"
fill="#000000" stroke="none">
<path d="M5565 9799 c-4 -6 -13 -8 -20 -5 -7 2 -16 -2 -19 -10 -3 -9 -10 -12
-16 -9 -6 4 -7 -1 -3 -11 4 -12 3 -15 -6 -10 -6 4 -23 0 -36 -8 -14 -9 -25
-14 -25 -11 0 4 -7 0 -15 -9 -8 -8 -15 -21 -15 -28 0 -10 -2 -10 -8 0 -7 10
-15 8 -35 -8 -15 -12 -31 -18 -37 -15 -6 4 -9 3 -8 -2 2 -4 -1 -10 -7 -12 -5
-2 -27 -15 -47 -28 -21 -13 -38 -20 -38 -16 0 5 -4 4 -8 -2 -4 -5 -25 -19 -47
-30 -22 -10 -49 -26 -59 -35 -17 -13 -18 -13 -11 0 7 12 5 12 -11 -1 -10 -9
-29 -20 -41 -23 -13 -4 -23 -11 -23 -16 0 -5 -6 -7 -14 -4 -7 3 -22 -3 -31
-13 -10 -10 -21 -17 -24 -16 -16 6 -52 -11 -48 -22 4 -8 -2 -10 -17 -8 -13 3
-29 -2 -37 -10 -8 -7 -22 -13 -32 -11 -9 1 -17 -2 -17 -7 0 -6 -4 -7 -10 -4
-5 3 -10 2 -10 -4 0 -5 -14 -12 -30 -16 -17 -4 -28 -11 -25 -16 4 -5 -1 -6 -9
-3 -9 3 -16 1 -16 -6 0 -6 -4 -9 -9 -6 -9 6 -61 -15 -61 -25 0 -3 -11 -5 -25
-4 -14 2 -23 0 -20 -5 5 -8 -51 -25 -58 -18 -2 2 -11 -3 -20 -11 -10 -7 -17
-10 -17 -5 0 5 -5 1 -11 -8 -5 -10 -16 -15 -25 -11 -8 3 -24 -3 -36 -13 -14
-12 -18 -14 -13 -4 7 12 6 13 -6 4 -8 -6 -27 -14 -44 -18 -16 -4 -36 -13 -43
-18 -7 -6 -27 -13 -45 -15 -17 -2 -34 -7 -37 -12 -3 -6 -19 -12 -35 -15 -17
-2 -31 -5 -32 -6 -4 -3 -20 -7 -34 -9 -5 0 -8 -5 -5 -9 3 -5 -5 -8 -17 -6 -12
1 -33 -5 -46 -13 -13 -9 -20 -10 -16 -3 5 8 2 9 -11 1 -28 -15 -127 -41 -136
-35 -4 3 -8 0 -8 -5 0 -6 -12 -11 -26 -11 -14 0 -23 -4 -20 -9 3 -4 -6 -7 -19
-5 -14 1 -25 -1 -25 -5 0 -6 -17 -10 -57 -13 -7 -1 -13 -5 -13 -9 0 -4 -11 -6
-24 -3 -14 2 -28 0 -31 -6 -3 -5 -17 -10 -30 -10 -13 0 -26 -4 -29 -9 -3 -5
-19 -7 -36 -6 -16 1 -27 -1 -24 -6 3 -5 -5 -9 -18 -10 -42 -1 -72 -9 -80 -22
-6 -9 -8 -9 -8 1 0 10 -5 10 -20 2 -11 -6 -25 -8 -30 -5 -6 3 -10 2 -10 -4 0
-5 -9 -8 -19 -6 -11 2 -22 -3 -25 -11 -4 -9 -11 -12 -18 -8 -17 11 -48 12 -42
2 5 -7 -5 -9 -76 -13 -15 -1 -24 -7 -22 -15 2 -10 0 -11 -11 -2 -9 8 -17 8
-23 2 -6 -6 -29 -11 -52 -12 -23 -1 -42 -4 -42 -8 0 -3 -12 -7 -27 -8 -36 -1
-55 -5 -72 -16 -10 -6 -12 -5 -7 2 9 14 -6 16 -20 3 -5 -5 -25 -11 -44 -12
-19 -2 -38 -8 -42 -14 -5 -6 -8 -5 -8 3 0 9 -5 10 -18 3 -10 -5 -30 -8 -45 -7
-14 2 -24 -1 -21 -5 3 -5 -5 -9 -18 -8 -42 1 -140 -15 -158 -26 -6 -3 -10 0
-10 7 0 9 -2 10 -8 2 -4 -7 -16 -12 -27 -12 -71 2 -96 -3 -89 -14 5 -10 4 -10
-6 -1 -8 7 -22 8 -41 3 -16 -5 -38 -7 -49 -5 -11 2 -20 -1 -20 -7 0 -7 -6 -6
-15 2 -11 9 -15 9 -15 1 0 -6 -12 -11 -28 -10 -44 1 -205 -11 -224 -17 -10 -3
-15 -11 -11 -20 3 -8 -1 -14 -8 -14 -11 0 -11 -3 1 -10 8 -5 10 -10 5 -10 -15
0 -16 -40 -2 -40 9 0 9 -2 0 -8 -11 -7 -21 -70 -22 -145 -1 -21 -5 -36 -9 -33
-5 3 -9 -1 -9 -9 0 -8 3 -12 7 -10 4 2 7 -2 7 -10 0 -8 -3 -12 -7 -10 -4 2 -7
-10 -7 -28 -1 -18 -4 -63 -8 -102 -3 -38 -7 -84 -9 -100 -1 -17 -5 -36 -9 -43
-5 -7 -3 -12 4 -12 8 0 8 -4 -1 -15 -10 -12 -10 -15 1 -15 9 0 10 -3 4 -8 -6
-4 -11 -18 -12 -32 -12 -209 -16 -246 -26 -252 -8 -5 -8 -8 -1 -8 6 0 11 -14
12 -32 1 -23 -2 -28 -8 -18 -7 11 -9 10 -7 -7 0 -12 4 -20 7 -18 3 2 6 -5 6
-15 0 -10 -4 -16 -8 -14 -4 3 -8 1 -8 -5 0 -5 5 -13 10 -16 6 -4 7 -12 3 -18
-4 -7 -8 -39 -10 -72 -1 -33 -4 -84 -6 -112 -2 -29 0 -53 5 -53 5 0 6 -6 1
-12 -12 -20 -11 -151 1 -167 7 -10 7 -13 0 -8 -7 4 -10 -49 -10 -174 0 -114 4
-179 11 -179 7 0 7 -3 0 -8 -14 -9 -14 -65 0 -74 6 -5 6 -8 -2 -8 -7 0 -10 -6
-8 -12 2 -7 6 -59 8 -114 3 -56 7 -107 11 -113 4 -6 1 -11 -6 -11 -9 0 -9 -3
2 -10 11 -7 11 -10 2 -10 -8 0 -10 -5 -6 -12 4 -6 9 -32 10 -57 6 -78 13 -195
13 -209 1 -8 6 -10 14 -6 8 5 8 2 -2 -9 -10 -13 -11 -20 -2 -31 8 -10 9 -16 1
-21 -7 -4 -7 -12 0 -25 13 -25 13 -33 -2 -24 -10 6 -10 5 -1 -7 7 -8 14 -44
17 -79 2 -36 5 -65 6 -65 1 0 4 -18 5 -40 2 -22 4 -41 5 -42 2 -2 3 -6 4 -10
1 -5 5 -14 9 -20 5 -8 4 -13 -3 -13 -6 0 -8 -4 -5 -10 7 -11 17 -66 16 -92 0
-10 4 -20 10 -23 5 -4 9 -12 9 -18 0 -7 -4 -6 -10 3 -7 12 -9 10 -7 -7 0 -12
5 -19 11 -16 5 4 7 -1 3 -9 -3 -9 -3 -19 1 -22 3 -4 7 -23 8 -44 1 -20 3 -37
4 -37 1 0 3 -14 4 -31 1 -17 7 -38 14 -47 10 -11 10 -17 1 -22 -8 -5 -8 -10 0
-14 5 -4 12 -26 13 -49 2 -23 6 -42 10 -42 4 0 5 -7 2 -15 -4 -8 -1 -15 6 -15
10 0 10 -3 0 -15 -10 -12 -10 -15 0 -15 8 0 10 -3 7 -7 -4 -3 -2 -12 4 -19 7
-8 7 -14 -1 -19 -8 -5 -8 -11 0 -19 5 -7 11 -25 12 -40 1 -14 6 -26 10 -26 4
0 8 -15 8 -33 0 -18 6 -39 13 -46 10 -11 9 -12 -3 -6 -13 8 -13 6 -2 -8 8 -9
10 -22 6 -28 -5 -8 -3 -9 5 -5 8 5 12 3 10 -5 -4 -31 2 -60 10 -55 5 4 7 -3 4
-14 -3 -11 0 -20 6 -20 6 0 11 -5 11 -11 0 -5 -5 -7 -11 -4 -7 5 -7 2 0 -11
10 -19 21 -61 20 -78 -1 -5 5 -13 13 -17 11 -7 11 -9 0 -9 -10 0 -10 -4 2 -16
9 -8 16 -28 16 -44 0 -16 5 -32 11 -35 6 -4 8 -13 5 -20 -3 -8 0 -16 7 -19 8
-3 8 -5 -1 -5 -10 -1 -10 -5 2 -17 9 -8 14 -20 11 -25 -4 -5 -1 -9 5 -9 7 0
10 -7 6 -15 -3 -8 -2 -15 2 -15 4 0 9 -12 10 -27 1 -15 7 -30 14 -34 6 -4 8
-14 5 -24 -5 -10 -3 -14 5 -9 7 5 9 -1 6 -19 -3 -15 -1 -24 3 -21 5 3 9 -4 9
-15 0 -12 4 -21 8 -21 5 0 9 -6 10 -12 1 -29 12 -61 24 -76 11 -13 11 -15 -2
-8 -8 4 -6 0 4 -8 11 -9 16 -16 11 -16 -5 0 -4 -5 2 -11 6 -6 9 -18 6 -26 -3
-7 3 -23 12 -33 10 -11 14 -20 10 -20 -5 0 0 -7 11 -16 10 -8 13 -12 5 -8 -10
5 -12 3 -5 -7 5 -8 9 -16 10 -19 11 -35 17 -50 23 -50 4 0 8 -10 8 -22 1 -13
7 -24 13 -26 5 -2 8 -7 5 -12 -3 -5 2 -16 11 -24 8 -9 13 -16 9 -16 -3 0 1
-13 10 -30 9 -16 12 -30 9 -30 -4 0 0 -8 9 -18 10 -10 14 -22 10 -25 -3 -4 -1
-7 6 -7 8 0 11 -7 7 -15 -3 -8 -1 -15 4 -15 6 0 10 -6 10 -14 0 -8 4 -16 9
-18 5 -1 11 -12 13 -23 1 -11 9 -26 16 -33 7 -8 10 -18 7 -23 -4 -5 -2 -9 4
-9 5 0 15 -16 22 -35 7 -19 17 -35 21 -35 4 0 8 -9 8 -19 0 -11 3 -21 8 -23 4
-1 20 -29 36 -60 15 -32 33 -58 38 -58 5 0 7 -4 4 -9 -3 -5 2 -19 12 -32 10
-13 23 -36 30 -51 6 -16 16 -28 22 -28 5 0 10 -9 10 -20 0 -11 5 -20 10 -20 6
0 10 -5 10 -10 0 -6 12 -29 27 -53 15 -23 26 -46 25 -51 -2 -5 4 -6 12 -3 10
4 13 1 10 -7 -3 -7 1 -20 8 -27 23 -25 58 -78 58 -88 0 -5 10 -18 23 -28 12
-10 23 -25 25 -33 2 -8 9 -18 15 -22 7 -4 8 -8 3 -8 -5 0 1 -8 12 -19 12 -10
22 -27 22 -37 0 -16 2 -17 10 -4 8 12 10 11 10 -7 0 -13 8 -24 20 -28 11 -4
18 -11 14 -16 -3 -5 8 -23 25 -39 16 -17 27 -30 25 -30 -3 0 1 -6 8 -14 7 -8
17 -11 22 -8 5 3 6 0 2 -6 -4 -6 5 -21 19 -34 14 -12 25 -25 25 -30 0 -7 28
-41 78 -93 12 -13 22 -29 22 -35 0 -5 7 -10 16 -10 8 0 13 -4 10 -8 -3 -5 8
-16 25 -26 16 -9 29 -23 29 -31 0 -8 9 -20 20 -28 11 -8 17 -17 13 -20 -3 -4
1 -7 10 -7 10 0 17 -7 17 -16 0 -8 4 -12 10 -9 5 3 10 2 10 -3 0 -13 36 -52
48 -52 6 0 14 -5 18 -12 5 -7 2 -8 -7 -3 -8 4 -4 -2 9 -14 12 -12 27 -19 34
-15 7 4 8 3 4 -4 -4 -7 -2 -12 4 -12 6 0 9 -4 6 -9 -6 -9 22 -26 36 -23 4 1 5
-5 2 -13 -4 -9 0 -15 10 -15 9 0 16 -7 16 -16 0 -10 6 -14 15 -10 13 5 20 -5
16 -26 0 -5 4 -8 11 -8 12 0 22 -9 84 -69 13 -13 24 -21 24 -17 0 4 6 1 14 -6
8 -7 12 -16 10 -19 -2 -3 9 -12 24 -20 15 -8 35 -24 45 -37 10 -12 22 -20 25
-18 10 5 32 -20 25 -28 -4 -3 1 -6 10 -6 10 0 17 -5 17 -11 0 -5 5 -7 10 -4 6
3 10 2 10 -4 0 -5 9 -13 21 -16 11 -4 18 -9 15 -13 -4 -3 14 -17 39 -32 25
-15 42 -29 38 -33 -3 -4 0 -7 9 -7 8 0 23 -9 33 -20 10 -11 24 -20 32 -20 7 0
13 -4 13 -8 0 -5 12 -15 28 -23 15 -8 34 -22 43 -31 9 -10 18 -15 21 -13 3 3
11 -1 18 -10 7 -8 19 -15 26 -15 8 0 14 -4 14 -10 0 -5 7 -10 15 -10 9 0 18
-7 21 -15 4 -8 10 -13 14 -10 4 3 14 -2 21 -11 7 -8 26 -22 43 -30 41 -19 70
-36 92 -54 16 -13 17 -13 10 0 -4 8 -1 7 7 -3 8 -10 24 -19 35 -20 11 0 19 -4
17 -7 -1 -3 3 -11 11 -18 8 -7 14 -10 14 -6 0 3 16 -3 36 -15 19 -12 32 -15
29 -9 -4 7 0 5 8 -4 8 -10 19 -18 24 -18 6 0 23 -10 39 -22 15 -13 25 -17 20
-10 -4 7 8 3 26 -7 53 -32 118 -62 138 -64 10 -1 17 -4 14 -8 -5 -9 25 -21 37
-13 5 3 9 2 9 -3 0 -11 51 -34 61 -27 5 3 9 0 9 -6 0 -6 5 -8 10 -5 6 3 10 1
10 -5 0 -6 4 -9 9 -5 5 3 12 1 16 -5 4 -6 10 -8 15 -5 5 3 11 1 15 -5 3 -5 15
-10 26 -10 10 0 19 -5 19 -11 0 -6 6 -9 14 -6 7 3 19 0 25 -6 6 -6 11 -7 11
-1 0 5 4 3 8 -4 5 -7 23 -14 40 -15 18 -1 32 -5 32 -9 0 -5 8 -8 18 -8 10 0
22 -4 28 -10 5 -5 31 -11 58 -14 26 -3 50 -7 53 -10 2 -2 20 2 39 10 19 8 34
11 34 7 0 -5 4 -2 8 4 7 11 32 19 65 22 5 1 5 6 1 13 -4 6 -3 8 3 5 6 -4 28 0
49 9 22 9 39 16 39 15 0 -1 16 4 35 10 19 7 36 11 37 8 1 -2 9 5 17 16 8 11
18 17 22 12 4 -4 18 0 31 8 13 9 28 13 33 10 6 -3 10 1 10 9 0 10 6 13 15 10
8 -4 15 -1 15 5 0 6 3 10 8 9 15 -4 82 24 77 33 -4 5 1 6 9 3 10 -4 16 -1 16
7 0 7 3 10 6 6 3 -3 27 5 52 18 26 13 49 22 53 19 4 -2 10 3 13 12 3 8 10 12
16 9 5 -3 10 -1 10 5 0 6 4 9 9 6 5 -3 12 1 15 10 3 8 10 12 16 9 6 -3 23 3
39 14 15 11 31 18 35 14 3 -3 6 -1 6 5 0 6 16 16 34 23 19 7 33 16 30 21 -3 4
4 8 15 8 11 0 23 4 26 10 3 5 16 10 27 10 12 0 18 3 14 7 -6 7 37 34 77 49 9
3 17 12 17 20 0 8 6 11 15 8 8 -4 15 -1 15 7 0 7 3 9 6 6 4 -4 15 3 25 15 11
11 19 18 19 13 0 -4 6 -2 13 4 8 6 18 7 22 3 5 -4 5 1 2 11 -4 10 -3 16 2 12
5 -3 12 -1 16 5 3 5 15 10 27 10 15 0 18 4 14 17 -4 10 -4 14 0 11 4 -4 16 -2
28 4 11 7 24 11 29 10 4 -1 7 4 7 12 0 7 9 16 21 19 13 4 18 10 13 18 -4 8 -3
10 5 5 11 -7 87 47 124 89 10 11 16 13 12 5 -4 -8 1 -6 9 4 9 11 16 16 16 11
0 -5 14 5 30 23 17 18 30 30 30 25 0 -4 13 7 29 24 16 18 31 29 34 27 3 -3 11
4 17 16 6 12 14 19 17 16 3 -3 14 6 25 19 11 14 24 23 29 19 5 -3 8 -2 7 3 -2
4 1 8 5 8 5 0 15 11 22 25 8 14 14 21 15 17 0 -13 30 20 30 33 0 6 4 9 9 6 5
-3 11 1 15 9 3 8 13 15 21 15 9 0 14 4 11 8 -3 5 4 16 15 25 10 9 19 14 19 12
0 -3 6 0 14 7 8 7 12 16 10 20 -3 4 5 12 16 18 11 6 18 15 15 20 -3 6 1 7 9 4
9 -3 16 -2 16 3 0 15 55 73 69 73 7 0 9 5 6 10 -3 6 1 13 9 16 9 3 14 10 11
14 -3 5 4 11 15 15 11 3 20 10 20 15 0 5 22 32 49 61 27 29 47 57 45 61 -3 4
2 8 10 8 9 0 16 8 16 17 0 9 3 13 7 10 3 -4 14 7 24 23 11 17 23 30 29 30 6 0
10 8 8 17 -2 10 3 18 12 18 8 0 16 9 18 20 2 11 9 25 14 30 8 7 8 6 3 -4 -5
-9 -4 -12 3 -7 7 4 12 14 12 22 0 8 5 12 10 9 9 -5 15 16 11 38 -1 5 3 6 8 3
10 -7 54 48 45 57 -3 3 4 8 15 12 12 3 19 10 16 15 -3 5 -1 11 5 15 6 4 7 11
4 17 -4 7 -2 8 4 4 7 -4 12 -1 12 9 0 10 5 13 12 9 6 -4 8 -3 5 3 -4 6 5 23
19 38 14 15 26 36 27 46 1 10 5 15 9 13 4 -3 8 -1 8 4 0 5 9 19 20 32 11 12
17 27 14 31 -3 5 -1 9 3 9 11 0 59 79 56 91 -2 5 2 9 7 9 6 0 10 7 10 15 0 8
4 15 10 15 5 0 13 12 16 26 4 17 9 22 14 14 4 -7 10 2 14 24 4 20 11 36 16 36
6 0 10 7 10 15 0 8 5 15 12 15 6 0 9 3 5 6 -3 4 1 13 9 21 8 8 12 19 9 24 -4
5 -1 9 5 9 6 0 9 4 5 9 -3 6 3 14 12 20 10 6 14 11 10 11 -5 0 1 13 12 28 11
16 23 40 26 55 4 15 12 24 17 21 6 -4 8 -1 6 7 -3 8 4 27 15 43 14 19 16 27 6
22 -7 -4 -6 -1 4 7 10 9 18 18 18 21 -3 21 0 26 11 20 7 -4 8 -3 4 4 -4 6 -3
19 3 29 5 10 17 36 27 58 11 22 23 43 28 46 5 4 6 14 3 22 -3 9 1 18 9 21 9 3
13 10 9 15 -3 5 -1 12 5 16 6 4 8 11 5 16 -4 5 -2 9 4 9 6 0 13 16 17 35 3 19
10 35 15 35 4 0 11 21 15 46 4 31 9 42 15 33 7 -11 9 -11 10 1 2 33 10 64 20
76 6 7 8 18 4 24 -3 5 -1 10 4 10 6 0 11 9 11 20 0 11 4 20 9 20 6 0 8 9 6 20
-2 11 0 20 6 20 5 0 9 12 9 26 0 14 4 23 8 20 5 -3 9 0 9 7 0 7 6 32 13 57 8
25 13 48 12 53 -1 4 3 7 8 7 5 0 9 3 9 8 -3 19 2 43 9 39 6 -5 10 13 12 66 1
9 6 17 11 17 6 0 8 4 4 9 -3 5 -1 13 5 16 8 5 7 11 -1 21 -10 12 -10 15 1 12
9 -2 15 7 16 25 2 15 10 41 18 57 8 17 10 28 5 25 -5 -4 -9 -1 -9 4 0 6 5 11
10 11 6 0 10 11 10 25 0 14 5 25 11 25 8 0 8 5 -1 15 -10 12 -10 15 0 15 7 0
10 7 6 16 -3 8 -2 12 4 9 5 -3 9 3 9 12 -1 10 2 32 6 48 4 17 8 36 8 43 0 6 3
12 7 12 4 0 6 10 6 23 -1 12 2 27 6 33 5 7 8 16 7 20 -1 5 0 11 1 14 2 5 4 16
14 55 19 82 23 105 19 105 -3 0 -1 6 4 13 5 6 8 22 7 35 0 12 2 22 5 22 4 0 7
10 8 23 1 28 12 88 19 99 3 4 -1 8 -8 8 -10 0 -10 2 -1 8 12 7 22 52 27 114 1
15 5 30 8 34 4 3 4 17 2 31 -3 13 -1 22 4 19 5 -3 9 1 9 9 0 8 -5 15 -11 15
-7 0 -7 3 1 8 6 4 14 36 17 71 3 35 10 69 16 76 8 9 8 15 0 20 -5 3 -10 11
-10 16 0 6 4 8 8 5 4 -3 8 15 7 40 0 24 2 44 5 44 4 0 6 15 5 33 0 17 3 38 8
45 6 7 6 12 -1 12 -5 0 -8 9 -5 20 3 11 10 20 17 20 7 0 7 3 1 8 -12 8 -16 64
-4 56 5 -2 8 8 7 23 0 15 2 69 6 118 4 50 8 109 9 132 1 23 6 45 10 49 4 4 2
13 -4 21 -6 7 -8 13 -3 13 5 0 10 39 11 88 1 48 4 96 6 107 3 11 0 28 -5 38
-5 9 -5 17 -1 17 12 0 13 632 1 647 -5 6 -5 14 -1 16 5 3 7 45 5 94 -2 48 -5
104 -5 123 -1 19 -6 38 -12 42 -6 5 -5 8 2 8 9 0 10 7 3 26 -6 14 -6 23 -1 20
5 -4 8 2 6 11 -2 10 -4 18 -5 18 -1 0 -3 15 -5 33 -2 23 0 30 8 25 8 -5 8 -2
0 9 -10 12 -23 131 -25 228 -1 8 -5 21 -11 28 -6 7 -6 12 0 12 5 0 10 7 10 15
0 8 -5 15 -10 15 -5 0 -5 6 2 13 6 8 7 17 1 23 -5 5 -10 33 -11 62 -2 28 -5
52 -8 52 -3 0 -6 23 -6 50 0 28 -4 50 -10 50 -5 0 -3 5 5 10 8 5 10 10 3 10
-6 0 -10 13 -9 30 1 17 -1 30 -4 30 -3 0 -7 21 -9 47 -1 26 -8 51 -14 55 -9 5
-8 8 3 8 12 0 12 2 2 9 -7 4 -12 14 -10 21 3 14 -16 19 -89 23 -29 1 -53 5
-53 9 0 4 -6 5 -14 2 -8 -3 -24 0 -36 6 -15 8 -20 8 -16 1 4 -6 2 -11 -3 -11
-6 0 -11 4 -11 8 0 4 -12 7 -27 7 -16 -1 -32 1 -38 4 -5 3 -28 6 -50 7 -22 1
-42 3 -45 4 -3 1 -9 3 -15 5 -5 1 -12 3 -15 4 -16 8 -50 6 -50 -2 0 -5 -6 -4
-14 2 -7 6 -31 13 -52 15 -22 3 -39 5 -39 6 0 2 -34 7 -75 11 -19 2 -38 8 -42
14 -5 6 -8 4 -8 -5 0 -11 -2 -12 -8 -2 -5 7 -25 13 -45 14 -20 1 -37 6 -37 12
0 6 -5 4 -10 -4 -5 -8 -10 -10 -10 -4 0 5 -10 10 -22 11 -13 0 -39 4 -58 7
-53 11 -93 18 -112 19 -10 1 -18 5 -18 9 0 4 -5 8 -11 8 -5 0 -7 -6 -3 -12 6
-10 4 -10 -7 0 -7 6 -23 12 -35 12 -12 0 -25 6 -27 13 -4 9 -6 9 -6 -1 -1 -10
-6 -10 -22 -2 -11 7 -27 9 -34 6 -8 -3 -17 -1 -21 5 -3 6 -12 8 -19 5 -7 -2
-17 0 -22 5 -6 6 -26 11 -46 12 -21 1 -37 5 -37 8 0 3 -6 6 -12 7 -12 1 -43 7
-88 15 -8 1 -19 5 -25 8 -5 4 -18 5 -28 4 -9 -2 -15 1 -11 6 3 5 -11 9 -30 9
-20 0 -36 4 -36 9 0 5 -9 7 -21 4 -12 -4 -25 0 -30 8 -7 11 -9 11 -9 1 0 -10
-4 -10 -15 2 -8 8 -24 13 -35 11 -11 -2 -20 0 -20 5 0 4 -8 7 -17 6 -10 -2
-21 1 -24 5 -3 5 -18 10 -35 11 -16 1 -38 9 -48 17 -14 12 -17 12 -11 2 6 -10
4 -12 -6 -5 -16 10 -30 14 -76 21 -19 3 -30 10 -27 15 4 6 1 8 -7 6 -8 -3 -31
1 -53 8 -21 8 -42 11 -47 8 -5 -3 -9 0 -9 6 0 6 -4 9 -9 5 -5 -3 -12 -1 -16 5
-3 5 -17 10 -31 10 -13 0 -24 4 -24 8 0 7 -16 11 -57 14 -7 1 -13 5 -13 10 0
4 -11 8 -25 8 -14 0 -25 4 -25 8 0 4 -8 9 -17 10 -30 3 -48 7 -58 13 -8 5 -77
30 -95 34 -3 1 -18 7 -34 14 -16 6 -36 9 -44 6 -9 -3 -12 0 -9 8 3 8 0 14 -6
15 -47 4 -72 11 -75 21 -2 6 -8 9 -13 5 -5 -3 -9 -1 -9 5 0 5 -9 8 -20 6 -11
-2 -20 0 -20 4 0 7 -73 33 -86 31 -4 -1 -10 3 -14 9 -6 11 -37 21 -67 23 -7 1
-15 8 -18 16 -3 8 -12 11 -20 8 -8 -3 -15 -1 -15 5 0 6 -7 8 -16 5 -8 -3 -12
-2 -9 4 5 9 -7 12 -31 9 -3 0 -12 8 -21 18 -8 10 -12 13 -9 7 3 -6 -19 1 -49
17 -30 16 -55 25 -55 21 0 -4 -4 -1 -9 6 -4 7 -17 14 -29 15 -11 0 -18 5 -16
9 3 4 0 8 -5 8 -22 0 -26 2 -42 16 -9 8 -19 11 -22 7 -4 -3 -7 -1 -7 5 0 7 -9
12 -20 12 -11 0 -20 4 -20 8 0 8 -60 36 -72 33 -5 0 -8 4 -8 9 0 6 -9 10 -20
10 -12 0 -20 7 -20 17 0 9 -3 13 -7 10 -3 -4 -17 0 -30 8 -13 9 -23 13 -23 10
0 -3 -10 3 -22 14 -11 11 -24 18 -28 16 -5 -3 -10 2 -14 10 -3 8 -15 15 -26
15 -12 0 -18 5 -15 10 3 6 2 10 -4 10 -5 0 -13 -5 -16 -11z"/>
</g>
</svg>
